<svg xmlns="http://www.w3.org/2000/svg" width="69" height="23" viewBox="0 0 69 23">
    <path fill="#FC2779" fill-rule="evenodd" d="M8.473 10.115s-3.141 7.289-4.15 9.868c-1.01 2.579-1.617 3.001-2.994 3.001-1.377 0-1.405-.89-1.283-1.469.123-.578 5.286-11.873 5.286-11.873s3.056-6.645 3.782-7.77C9.84.75 10.631.405 11.571.889s.431 4.139.16 6.97c-.27 2.83-.147 4.263-.147 4.263l3.31-6.832s1.75-3.862 2.462-4.636c.712-.773 1.785-.636 2.248-.399.463.238.528.48-.024 1.603C19.03 2.98 16.464 8.1 16.464 8.1s-.94 1.77-2.836 6.054c-1.896 4.284-2.889 7.357-2.889 7.357s-.495 1.421-1.692 1.421-1.36-.983-1.24-2.349c.12-1.366.666-10.468.666-10.468zM21.16 1.604S22.003.087 23.079.087s1.203.767.862 1.541c-.342.774-2.178 4.662-2.178 4.662s-.907 2.142.765 2.142c1.671 0 3.697-4.206 4.748-6.007C28.326.624 28.968.108 29.734.108c.766 0 1.929.53.964 2.34-.964 1.81-3.232 5.24-3.232 5.24s-2.799 4.61-4.553 8.11c-1.753 3.5-1.074 1.914-2.117 4.255-1.044 2.34-2 2.92-2.771 2.92-.772 0-1.552-.57-1.228-1.599.323-1.03 2.976-5.255 2.976-5.255s2.47-3.717 2.47-4.475c0-.76-1.347-.284-2.238-.284-.89 0-2.158-.173-2.158-2.12s3.313-7.636 3.313-7.636zm9.258 10.17s-1.401 2.544-3.107 6.68c-1.706 4.135-2.617 4.499-3.708 4.499-1.09 0-1.416-.724-1.25-1.4.167-.677 3.477-7.62 3.477-7.62s2.84-5.315 4.633-8.282C32.257 2.683 33.787 0 35.933 0c2.144 0 .801 1.977 0 3.166-.803 1.188-2.86 3.95-2.86 3.95s1.538-.754 4.52-3.066C40.576 1.74 42.48.007 43.688.007c1.21 0 1.637 1.071 1.637 1.071s.517.456-1.334 1.714-5.793 4.093-7.722 5.17c-1.93 1.077-3.181 2.265-3.181 2.518 0 .254.052.756.769 2.408.716 1.651 2.036 4.832 2.136 4.832.1 0 3.727-5.426 3.727-5.426s6.415-9.197 7.901-10.712C49.107.068 49.773.095 50.195.095c.422 0 1.386-.1 1.386 1.567s-1.278 9.849-1.278 9.849l2.5-.568 3.788-9.127s.654-1.67 2.245-1.67c1.591 0 2.012.678 2.012 1.662 0 .984.286 7.455.286 7.455l5.983-1.173S68.9 7.76 68.9 9.209c0 1.448-.308 1.578-1.49 1.798-1.183.22-6.111.904-6.111.904s-.08.977.15 3.63c.231 2.653.552 4.237.552 5.715 0 1.478-2.194 1.51-2.194 1.51s-1.376.406-1.51-2.162c-.135-2.568-.137-8.154-.137-8.154l-3.168.598s-.764 2.431-1.19 4.394c-.426 1.964-.948 5.358-2.795 5.358-1.846 0-1.325-1.858-.914-3.404.411-1.546 1.776-5.774 1.776-5.774l-1.915.39s-.227.902-.483 2.593c-.257 1.69-.277 5.47-1.95 5.923-1.673.453-2.38.03-2.38-1.55 0-1.582 1.234-6.127 1.234-6.127l-6.15 1.104s-1.916 3.823-2.97 5.536c-1.055 1.713-1.616 1.511-2.6 1.511-.983 0-1.61-2.212-2.294-4.56-.683-2.348-1.943-6.668-1.943-6.668zm25.239-1.443l2.618-.561-.281-5.89-2.337 6.45zm-13.735 3.052l4.813-1.033 1.234-7.435-6.047 8.468z"/>
</svg>
